HIERARCHY
ROOT newVegas:Hips
{
	OFFSET 0.000000 96.479958 0.000000
	CHANNELS 6 Xposition Yposition Zposition Xrotation Yrotation Zrotation
	JOINT newVegas:Pelvis
	{
		OFFSET 0.000000 0.000000 0.000000
		CHANNELS 3 Xrotation Yrotation Zrotation
		JOINT newVegas:LeftUpLeg
		{
			OFFSET 18.735201 -5.666702 -4.541200
			CHANNELS 3 Xrotation Yrotation Zrotation
			JOINT newVegas:LeftLeg
			{
				OFFSET -0.021200 -31.938179 0.493100
				CHANNELS 3 Xrotation Yrotation Zrotation
				JOINT newVegas:LeftFoot
				{
					OFFSET 0.021200 -31.938179 -4.336299
					CHANNELS 3 Xrotation Yrotation Zrotation
					JOINT newVegas:LeftToeBase
					{
						OFFSET 0.943001 -26.722000 15.023500
						CHANNELS 3 Xrotation Yrotation Zrotation
						End Site
						{
							OFFSET 0.000000 30.670183 0.000000
						}
					}
				}
				JOINT newVegas:Left_PantLeg
				{
					OFFSET 0.663870 -9.044666 -1.108900
					CHANNELS 3 Xrotation Yrotation Zrotation
					End Site
					{
						OFFSET 1.415995 20.635357 0.000000
					}
				}
			}
		}
		JOINT newVegas:RightUpLeg
		{
			OFFSET -18.735201 -5.666702 -4.541200
			CHANNELS 3 Xrotation Yrotation Zrotation
			JOINT newVegas:RightLeg
			{
				OFFSET 0.018946 -31.938133 0.493100
				CHANNELS 3 Xrotation Yrotation Zrotation
				JOINT newVegas:RightFoot
				{
					OFFSET -0.018946 -31.938126 -4.336299
					CHANNELS 3 Xrotation Yrotation Zrotation
					JOINT newVegas:RightToeBase
					{
						OFFSET -0.943001 -26.722004 15.023500
						CHANNELS 3 Xrotation Yrotation Zrotation
						End Site
						{
							OFFSET 0.000000 30.670187 0.000000
						}
					}
				}
				JOINT newVegas:Right_PantLeg
				{
					OFFSET -0.661674 -9.044716 -1.108900
					CHANNELS 3 Xrotation Yrotation Zrotation
					End Site
					{
						OFFSET -1.415958 20.635269 0.000000
					}
				}
			}
		}
	}
	JOINT newVegas:Spine
	{
		OFFSET 0.000000 10.199997 -0.299500
		CHANNELS 3 Xrotation Yrotation Zrotation
		JOINT newVegas:Spine1
		{
			OFFSET 0.000000 11.900002 -1.516600
			CHANNELS 3 Xrotation Yrotation Zrotation
			JOINT newVegas:Spine2
			{
				OFFSET 0.000000 13.600006 -2.842500
				CHANNELS 3 Xrotation Yrotation Zrotation
				JOINT newVegas:Neck
				{
					OFFSET 0.000000 9.624100 -2.890100
					CHANNELS 3 Xrotation Yrotation Zrotation
					JOINT newVegas:Head
					{
						OFFSET 0.000000 14.068802 -1.351900
						CHANNELS 3 Xrotation Yrotation Zrotation
						JOINT newVegas:Hair_Back
						{
							OFFSET 0.000000 3.231903 -17.524799
							CHANNELS 3 Xrotation Yrotation Zrotation
							End Site
							{
								OFFSET 0.000000 19.849884 0.000000
							}
						}
						JOINT newVegas:Hair_Front
						{
							OFFSET 0.000000 31.260406 4.573800
							CHANNELS 3 Xrotation Yrotation Zrotation
							JOINT newVegas:Hair_Front1
							{
								OFFSET 0.000000 2.284103 11.993300
								CHANNELS 3 Xrotation Yrotation Zrotation
								JOINT newVegas:Hair_Front2
								{
									OFFSET 0.000000 2.284103 11.993300
									CHANNELS 3 Xrotation Yrotation Zrotation
									End Site
									{
										OFFSET 0.000000 12.208862 0.000000
									}
								}
							}
						}
						JOINT newVegas:Jowel
						{
							OFFSET 0.000000 -7.458206 6.864100
							CHANNELS 3 Xrotation Yrotation Zrotation
							End Site
							{
								OFFSET 0.000000 19.849884 0.000000
							}
						}
					}
				}
				JOINT newVegas:LeftShoulder
				{
					OFFSET 15.263000 10.923401 -0.547700
					CHANNELS 3 Xrotation Yrotation Zrotation
					JOINT newVegas:LeftArm
					{
						OFFSET 25.438599 -2.830597 -13.032500
						CHANNELS 3 Xrotation Yrotation Zrotation
						JOINT newVegas:LeftForeArm
						{
							OFFSET 29.960503 0.000000 0.000000
							CHANNELS 3 Xrotation Yrotation Zrotation
							JOINT newVegas:LeftHand
							{
								OFFSET 27.849251 0.000000 0.000000
								CHANNELS 3 Xrotation Yrotation Zrotation
								JOINT newVegas:LeftHandThumb1
								{
									OFFSET 4.487587 -3.305161 6.305391
									CHANNELS 3 Xrotation Yrotation Zrotation
									JOINT newVegas:LeftHandThumb2
									{
										OFFSET 5.480453 -3.164139 3.164143
										CHANNELS 3 Xrotation Yrotation Zrotation
										JOINT newVegas:LeftHandThumb3
										{
											OFFSET 5.159721 -2.978973 2.978967
											CHANNELS 3 Xrotation Yrotation Zrotation
											End Site
											{
												OFFSET 2.494507 5.926697 1.738678
											}
										}
									}
								}
								JOINT newVegas:LeftHandIndex1
								{
									OFFSET 18.578728 -0.527832 5.208049
									CHANNELS 3 Xrotation Yrotation Zrotation
									JOINT newVegas:LeftHandIndex2
									{
										OFFSET 3.192009 0.000000 0.000000
										CHANNELS 3 Xrotation Yrotation Zrotation
										JOINT newVegas:LeftHandIndex3
										{
											OFFSET 3.835129 0.000000 0.000000
											CHANNELS 3 Xrotation Yrotation Zrotation
											End Site
											{
												OFFSET -0.034599 3.816971 0.371180
											}
										}
									}
								}
								JOINT newVegas:LeftHandMiddle1
								{
									OFFSET 18.476105 0.000000 0.000000
									CHANNELS 3 Xrotation Yrotation Zrotation
									JOINT newVegas:LeftHandMiddle2
									{
										OFFSET 3.324875 0.000000 0.000000
										CHANNELS 3 Xrotation Yrotation Zrotation
										JOINT newVegas:LeftHandMiddle3
										{
											OFFSET 4.596550 0.000000 0.000000
											CHANNELS 3 Xrotation Yrotation Zrotation
											End Site
											{
												OFFSET 0.057701 4.578827 0.399218
											}
										}
									}
								}
								JOINT newVegas:LeftHandRing1
								{
									OFFSET 17.732719 0.121887 -4.201567
									CHANNELS 3 Xrotation Yrotation Zrotation
									JOINT newVegas:LeftHandRing2
									{
										OFFSET 2.733170 0.000000 0.000000
										CHANNELS 3 Xrotation Yrotation Zrotation
										JOINT newVegas:LeftHandRing3
										{
											OFFSET 3.178268 0.000000 0.000000
											CHANNELS 3 Xrotation Yrotation Zrotation
											End Site
											{
												OFFSET 0.119102 3.170624 0.185394
											}
										}
									}
								}
								JOINT newVegas:LeftHandPinky1
								{
									OFFSET 15.989624 -0.606689 -7.535461
									CHANNELS 3 Xrotation Yrotation Zrotation
									JOINT newVegas:LeftHandPinky2
									{
										OFFSET 2.538986 0.000000 0.000000
										CHANNELS 3 Xrotation Yrotation Zrotation
										JOINT newVegas:LeftHandPinky3
										{
											OFFSET 2.593102 0.000000 0.000000
											CHANNELS 3 Xrotation Yrotation Zrotation
											End Site
											{
												OFFSET -0.150902 2.584198 0.152708
											}
										}
									}
								}
							}
							JOINT newVegas:Left_Sleeve
							{
								OFFSET 0.267448 -0.649796 0.577675
								CHANNELS 3 Xrotation Yrotation Zrotation
								End Site
								{
									OFFSET 0.000000 15.991241 0.000000
								}
							}
							JOINT newVegas:Left_CapeC
							{
								OFFSET 15.715958 -8.608795 -6.935905
								CHANNELS 3 Xrotation Yrotation Zrotation
								JOINT newVegas:Left_CapeC1
								{
									OFFSET 0.000000 -8.688499 0.000000
									CHANNELS 3 Xrotation Yrotation Zrotation
									End Site
									{
										OFFSET 0.000000 8.688499 0.000000
									}
								}
							}
						}
						JOINT newVegas:Left_CapeB
						{
							OFFSET 26.118385 -8.608795 -7.079235
							CHANNELS 3 Xrotation Yrotation Zrotation
							JOINT newVegas:Left_CapeB1
							{
								OFFSET 0.000000 -8.688499 0.000000
								CHANNELS 3 Xrotation Yrotation Zrotation
								End Site
								{
									OFFSET 0.000000 8.688499 0.000000
								}
							}
						}
						JOINT newVegas:Left_CapeA
						{
							OFFSET 5.115639 -8.608795 -10.395809
							CHANNELS 3 Xrotation Yrotation Zrotation
							JOINT newVegas:Left_CapeA1
							{
								OFFSET 0.000000 -8.688499 0.000000
								CHANNELS 3 Xrotation Yrotation Zrotation
								End Site
								{
									OFFSET 0.000000 8.688499 0.000000
								}
							}
						}
					}
				}
				JOINT newVegas:RightShoulder
				{
					OFFSET -15.263000 10.923401 -0.547700
					CHANNELS 3 Xrotation Yrotation Zrotation
					JOINT newVegas:RightArm
					{
						OFFSET -25.438599 -2.830597 -13.032500
						CHANNELS 3 Xrotation Yrotation Zrotation
						JOINT newVegas:RightForeArm
						{
							OFFSET -29.960503 0.000000 0.000000
							CHANNELS 3 Xrotation Yrotation Zrotation
							JOINT newVegas:RightHand
							{
								OFFSET -27.849251 0.000000 0.000000
								CHANNELS 3 Xrotation Yrotation Zrotation
								JOINT newVegas:RightHandThumb1
								{
									OFFSET -4.487587 -3.305161 6.305391
									CHANNELS 3 Xrotation Yrotation Zrotation
									JOINT newVegas:RightHandThumb2
									{
										OFFSET -5.480453 -3.164139 3.164143
										CHANNELS 3 Xrotation Yrotation Zrotation
										JOINT newVegas:RightHandThumb3
										{
											OFFSET -5.159721 -2.978973 2.978967
											CHANNELS 3 Xrotation Yrotation Zrotation
											End Site
											{
												OFFSET -2.494507 5.926697 1.738678
											}
										}
									}
								}
								JOINT newVegas:RightHandIndex1
								{
									OFFSET -18.578728 -0.527832 5.208049
									CHANNELS 3 Xrotation Yrotation Zrotation
									JOINT newVegas:RightHandIndex2
									{
										OFFSET -3.192009 0.000000 0.000000
										CHANNELS 3 Xrotation Yrotation Zrotation
										JOINT newVegas:RightHandIndex3
										{
											OFFSET -3.835129 0.000000 0.000000
											CHANNELS 3 Xrotation Yrotation Zrotation
											End Site
											{
												OFFSET 0.034599 3.816971 0.371180
											}
										}
									}
								}
								JOINT newVegas:RightHandMiddle1
								{
									OFFSET -18.476105 0.000000 0.000000
									CHANNELS 3 Xrotation Yrotation Zrotation
									JOINT newVegas:RightHandMiddle2
									{
										OFFSET -3.324875 0.000000 0.000000
										CHANNELS 3 Xrotation Yrotation Zrotation
										JOINT newVegas:RightHandMiddle3
										{
											OFFSET -4.596550 0.000000 0.000000
											CHANNELS 3 Xrotation Yrotation Zrotation
											End Site
											{
												OFFSET -0.057701 4.578827 0.399218
											}
										}
									}
								}
								JOINT newVegas:RightHandRing1
								{
									OFFSET -17.732719 0.121887 -4.201567
									CHANNELS 3 Xrotation Yrotation Zrotation
									JOINT newVegas:RightHandRing2
									{
										OFFSET -2.733170 0.000000 0.000000
										CHANNELS 3 Xrotation Yrotation Zrotation
										JOINT newVegas:RightHandRing3
										{
											OFFSET -3.178268 0.000000 0.000000
											CHANNELS 3 Xrotation Yrotation Zrotation
											End Site
											{
												OFFSET -0.119102 3.170624 0.185394
											}
										}
									}
								}
								JOINT newVegas:RightHandPinky1
								{
									OFFSET -15.989624 -0.606689 -7.535461
									CHANNELS 3 Xrotation Yrotation Zrotation
									JOINT newVegas:RightHandPinky2
									{
										OFFSET -2.538986 0.000000 0.000000
										CHANNELS 3 Xrotation Yrotation Zrotation
										JOINT newVegas:RightHandPinky3
										{
											OFFSET -2.593102 0.000000 0.000000
											CHANNELS 3 Xrotation Yrotation Zrotation
											End Site
											{
												OFFSET 0.150902 2.584198 0.152708
											}
										}
									}
								}
							}
							JOINT newVegas:Right_CapeC
							{
								OFFSET -15.715958 -8.608795 -6.935905
								CHANNELS 3 Xrotation Yrotation Zrotation
								JOINT newVegas:Right_CapeC1
								{
									OFFSET 0.000000 -8.688499 0.000000
									CHANNELS 3 Xrotation Yrotation Zrotation
									End Site
									{
										OFFSET 0.000000 8.688499 0.000000
									}
								}
							}
							JOINT newVegas:Right_Sleeve
							{
								OFFSET -0.267448 -0.649994 0.577675
								CHANNELS 3 Xrotation Yrotation Zrotation
								End Site
								{
									OFFSET 0.000000 15.991302 0.000000
								}
							}
						}
						JOINT newVegas:Right_CapeA
						{
							OFFSET -5.115540 -8.608795 -10.395824
							CHANNELS 3 Xrotation Yrotation Zrotation
							JOINT newVegas:Right_CapeA1
							{
								OFFSET 0.000000 -8.688499 0.000000
								CHANNELS 3 Xrotation Yrotation Zrotation
								End Site
								{
									OFFSET 0.000000 8.688499 0.000000
								}
							}
						}
						JOINT newVegas:Right_CapeB
						{
							OFFSET -26.118187 -8.608795 -7.079266
							CHANNELS 3 Xrotation Yrotation Zrotation
							JOINT newVegas:Right_CapeB1
							{
								OFFSET 0.000000 -8.688499 0.000000
								CHANNELS 3 Xrotation Yrotation Zrotation
								End Site
								{
									OFFSET 0.000000 8.688499 0.000000
								}
							}
						}
					}
				}
				JOINT newVegas:Left_Collar
				{
					OFFSET 18.625099 8.655502 8.828100
					CHANNELS 3 Xrotation Yrotation Zrotation
					JOINT newVegas:Left_Collar1
					{
						OFFSET 14.783401 10.540405 -1.259500
						CHANNELS 3 Xrotation Yrotation Zrotation
						End Site
						{
							OFFSET 0.000000 18.199875 0.000000
						}
					}
				}
				JOINT newVegas:Collar_Back
				{
					OFFSET 0.000000 15.630707 -20.132601
					CHANNELS 3 Xrotation Yrotation Zrotation
					End Site
					{
						OFFSET 0.000000 22.523010 0.000000
					}
				}
				JOINT newVegas:Left_Peck
				{
					OFFSET 17.239599 -5.132599 25.482599
					CHANNELS 3 Xrotation Yrotation Zrotation
					End Site
					{
						OFFSET 0.000000 22.523010 0.000000
					}
				}
				JOINT newVegas:Right_Peck
				{
					OFFSET -17.239599 -5.132202 25.482599
					CHANNELS 3 Xrotation Yrotation Zrotation
					End Site
					{
						OFFSET 0.000000 22.523010 0.000000
					}
				}
				JOINT newVegas:Right_Collar
				{
					OFFSET -18.625099 8.655792 8.828100
					CHANNELS 3 Xrotation Yrotation Zrotation
					JOINT newVegas:Right_Collar1
					{
						OFFSET -14.783401 10.539993 -1.259500
						CHANNELS 3 Xrotation Yrotation Zrotation
						End Site
						{
							OFFSET 0.000000 18.199631 0.000000
						}
					}
				}
			}
		}
		JOINT newVegas:Belly
		{
			OFFSET 0.000000 -6.540398 9.014299
			CHANNELS 3 Xrotation Yrotation Zrotation
			End Site
			{
				OFFSET 0.000000 11.566666 0.000000
			}
		}
	}
	JOINT newVegas:ElvisFacialAnim_Joint
	{
		OFFSET 1.000000 -95.330101 -8.825800
		CHANNELS 3 Xrotation Yrotation Zrotation
		End Site
		{
			OFFSET 0.000000 35.315800 0.000000
		}
	}
}
MOTION
Frames: 4
Frame Time: 0.016667
-3.743199 75.337402 2.151250 -4.314101 -74.812189 -3.407494 -0.000000 -0.000000 0.000000 -41.533892 6.985798 56.855229 44.152737 -5.073538 -8.334147 6.798535 -0.976910 -27.676837 -0.000000 0.000001 0.000000 0.000000 -0.000001 -0.000001 -42.499370 6.828422 -31.832254 66.910719 13.210820 -6.931398 -19.830028 -7.596989 28.259332 -0.000000 0.000000 0.000000 0.000000 0.000000 -0.000002 2.953925 -0.380318 -1.451622 5.893829 -0.904742 -3.151096 5.893816 -0.904596 -3.151109 -0.224628 4.882790 1.375119 -0.224634 4.882803 1.375121 -0.000000 -0.000002 0.000001 -0.224628 4.882787 1.375122 -0.224628 4.882815 1.375118 0.000001 -0.000001 0.000000 -0.000000 -0.000002 0.000000 0.279789 -7.010243 -19.556597 -39.504066 -20.309101 -2.427265 -5.614202 -32.071566 -2.800581 4.686498 -29.138021 18.780602 18.604749 9.201155 -20.335710 9.366541 23.517093 3.907234 0.000005 0.000000 -0.000001 5.062917 7.259561 -60.393503 0.009041 -4.396062 -76.234753 -0.000001 0.000001 0.000000 -0.063980 4.758026 -60.986827 -0.080426 -4.896953 -84.974356 0.000001 0.000002 0.000000 -0.034414 -0.057029 -61.362276 -0.169954 -1.351970 -91.625403 -0.000001 0.000001 0.000001 -4.255094 -2.157300 -63.603193 -0.059610 -0.064801 -85.011082 -0.000000 -0.000003 -0.000000 -0.000001 -0.000002 0.000000 -0.000001 -0.000002 0.000000 -0.000002 -0.000002 0.000000 -0.000000 0.000000 0.000000 -0.000001 -0.000001 -0.000001 -0.000000 0.000000 0.000000 -0.000002 -0.000001 0.000000 0.636236 13.855923 9.110355 35.455266 67.114409 -18.850897 0.649739 83.885310 -11.767029 -31.174066 -5.150263 -0.072257 15.959773 -4.187775 29.032211 -14.791980 -41.235488 -16.515566 -0.000000 -0.000003 -0.000001 5.358233 -4.863586 67.585043 0.006261 4.394831 68.693432 -0.000001 0.000000 0.000005 -0.076819 -4.752197 70.834888 -0.076454 4.897924 82.216346 -0.000001 -0.000001 0.000001 -1.164530 -6.475306 73.357482 -0.172075 1.351264 92.834374 -0.000003 0.000001 0.000000 -5.344928 -12.802426 81.125244 -0.058419 0.065324 84.695964 -0.000000 -0.000002 -0.000002 -0.000001 0.000000 -0.000000 0.000000 -0.000000 -0.000000 -0.000001 0.000000 -0.000000 0.000001 0.000001 -0.000001 0.000001 0.000001 -0.000001 0.000001 0.000001 -0.000001 0.000002 0.000001 -0.000001 0.000001 0.000000 -0.000000 0.000001 0.000000 -0.000000 0.000001 0.000000 -0.000000 0.000001 0.000000 -0.000000 0.000001 0.000000 -0.000000 0.000001 0.000000 -0.000000 0.000001 0.000000 -0.000000 -0.000000 0.000001 -0.000000 -0.000000 -0.000000 0.000000 
-3.743148 75.337036 2.151449 -4.314095 -74.812155 -3.407527 -0.000000 -0.000001 -0.000000 -41.358131 6.850167 56.734751 44.181789 -4.869872 -8.315799 6.775331 -0.968365 -27.777917 -0.000000 0.000001 -0.000000 0.000000 -0.000004 -0.000000 -42.480297 6.852824 -31.814307 66.906539 13.178485 -6.933213 -19.831249 -7.603359 28.280482 -0.000000 0.000000 -0.000000 -0.000000 0.000001 0.000002 2.953926 -0.380334 -1.451583 5.893828 -0.904734 -3.151098 5.893813 -0.904587 -3.151109 -0.230071 4.887773 1.374442 -0.230059 4.887805 1.374400 -0.000000 0.000000 0.000001 -0.229998 4.887685 1.374455 -0.230143 4.887899 1.374425 -0.000000 0.000002 -0.000000 -0.000000 0.000000 0.000000 0.279791 -7.010247 -19.556602 -39.570038 -20.279807 -2.378964 -5.525882 -32.234186 -2.805731 4.608315 -29.479988 18.629583 18.604754 9.201154 -20.335710 9.366546 23.517096 3.907234 0.000001 -0.000003 -0.000001 5.062920 7.259559 -60.393496 0.009039 -4.396063 -76.234753 -0.000000 -0.000000 0.000000 -0.063981 4.758026 -60.986827 -0.080428 -4.896952 -84.974356 -0.000000 0.000002 0.000000 -0.034414 -0.057030 -61.362269 -0.169957 -1.351972 -91.625403 -0.000002 0.000001 0.000002 -4.255089 -2.157305 -63.603186 -0.059608 -0.064803 -85.011082 0.000000 -0.000003 -0.000001 -0.000001 0.000003 0.000002 -0.000001 0.000003 0.000002 -0.000002 0.000003 0.000002 0.000001 -0.000001 0.000002 0.000001 -0.000001 0.000002 0.000001 -0.000001 0.000002 -0.000001 -0.000002 0.000002 0.636235 13.855894 9.110395 35.360999 66.921592 -19.125230 1.039505 84.331096 -12.064180 -30.137093 -3.581578 -2.922854 15.959772 -4.187775 29.032211 -14.791978 -41.235488 -16.515555 -0.000001 -0.000003 -0.000001 5.358230 -4.863586 67.585043 0.006261 4.394837 68.693439 -0.000000 -0.000002 0.000006 -0.076819 -4.752196 70.834888 -0.076456 4.897925 82.216346 -0.000000 0.000002 -0.000001 -1.164531 -6.475306 73.357482 -0.172076 1.351260 92.834367 -0.000002 0.000001 0.000000 -5.344929 -12.802427 81.125244 -0.058422 0.065322 84.695964 -0.000000 0.000005 0.000001 0.000002 0.000000 -0.000001 0.000002 0.000000 -0.000001 0.000002 0.000001 -0.000001 0.000001 -0.000002 -0.000000 0.000002 -0.000002 -0.000000 0.000001 -0.000002 -0.000000 0.000002 -0.000002 -0.000000 -0.000000 0.000000 -0.000000 -0.000000 0.000000 -0.000000 -0.000000 0.000000 -0.000000 -0.000000 0.000000 -0.000000 -0.000000 0.000000 -0.000000 -0.000000 0.000000 -0.000000 -0.000000 0.000000 -0.000000 0.000000 0.000001 -0.000000 -0.000000 -0.000001 -0.000000 
-3.727270 75.530060 2.119277 -5.314374 -75.245735 -4.413009 -0.000000 0.000001 -0.000000 -40.524837 7.207518 56.708318 43.769532 -4.348225 -8.210780 6.776927 -0.960553 -28.044975 -0.000000 -0.000000 -0.000000 0.000001 -0.000002 0.000002 -42.423487 6.761141 -31.599508 66.435522 13.426693 -6.897167 -19.431046 -7.431127 28.062689 -0.000000 0.000000 0.000000 0.000002 0.000001 0.000003 2.901261 -0.340271 -1.407387 5.790270 -0.823363 -3.057949 5.790280 -0.823168 -3.058012 -0.246226 4.902097 1.372437 -0.246235 4.902111 1.372440 -0.000000 0.000001 -0.000000 -0.246226 4.902092 1.372435 -0.246155 4.902104 1.372426 -0.000000 0.000001 -0.000000 -0.000000 0.000001 -0.000000 0.268780 -7.020028 -19.607416 -39.486884 -20.023365 -2.512434 -5.275125 -32.657142 -2.924885 4.324747 -29.568637 18.253889 18.604754 9.201158 -20.335708 9.366539 23.517093 3.907234 0.000002 0.000003 -0.000001 5.062919 7.259564 -60.393496 0.009036 -4.396060 -76.234753 0.000000 0.000001 0.000002 -0.063980 4.758030 -60.986827 -0.080427 -4.896953 -84.974356 0.000001 -0.000001 0.000000 -0.034414 -0.057023 -61.362269 -0.169956 -1.351972 -91.625396 -0.000003 0.000003 0.000002 -4.255087 -2.157299 -63.603179 -0.059613 -0.064803 -85.011082 -0.000000 -0.000002 0.000001 0.000003 -0.000002 -0.000001 0.000003 -0.000002 -0.000001 0.000002 -0.000002 -0.000001 -0.000006 -0.000003 -0.000000 -0.000007 -0.000002 -0.000001 -0.000006 -0.000003 -0.000000 -0.000008 -0.000003 -0.000001 0.634731 13.830914 9.149993 35.145080 66.734800 -18.517000 1.797529 83.923982 -12.613835 -28.913806 -1.718586 -3.791596 15.959770 -4.187776 29.032207 -14.791989 -41.235488 -16.515551 0.000000 0.000001 -0.000000 5.358227 -4.863586 67.585043 0.006261 4.394831 68.693432 0.000002 0.000002 0.000002 -0.076816 -4.752198 70.834881 -0.076455 4.897923 82.216339 -0.000000 -0.000002 -0.000001 -1.164532 -6.475306 73.357488 -0.172076 1.351261 92.834367 -0.000001 0.000002 -0.000000 -5.344926 -12.802428 81.125244 -0.058421 0.065322 84.695964 0.000001 0.000003 -0.000000 -0.000000 0.000000 0.000000 -0.000000 0.000000 0.000000 -0.000000 0.000001 -0.000000 0.000000 0.000001 -0.000001 0.000001 0.000001 -0.000001 0.000000 0.000001 -0.000001 0.000001 0.000001 -0.000001 0.000001 -0.000000 -0.000000 0.000001 -0.000000 -0.000000 0.000001 -0.000000 -0.000000 0.000001 -0.000000 -0.000000 0.000001 -0.000000 -0.000000 0.000001 -0.000000 -0.000000 0.000001 -0.000000 -0.000000 0.000000 -0.000000 0.000000 -0.000000 0.000001 -0.000000 
-3.703153 75.763168 2.061059 -6.754417 -75.844613 -5.861019 0.000000 0.000001 -0.000000 -39.471154 7.723636 56.744788 43.229309 -3.720106 -8.094122 6.791961 -0.954049 -28.378970 -0.000000 0.000000 -0.000000 -0.000000 -0.000001 0.000003 -42.387894 6.688212 -31.278134 65.875686 13.751848 -6.852246 -18.912531 -7.209260 27.773455 -0.000000 0.000000 0.000000 -0.000000 0.000001 -0.000002 2.821653 -0.284030 -1.355112 5.633337 -0.706291 -2.949007 5.633325 -0.706331 -2.949011 -0.270365 4.925126 1.369496 -0.270372 4.925147 1.369491 0.000000 0.000001 -0.000000 -0.270369 4.925123 1.369497 -0.270292 4.925161 1.369484 0.000000 -0.000002 0.000000 0.000000 0.000001 -0.000000 0.235411 -7.052436 -19.747766 -38.990896 -19.413544 -3.073296 -4.884510 -33.341340 -3.229814 3.787412 -29.109836 17.675558 18.604747 9.201154 -20.335719 9.366540 23.517096 3.907233 0.000004 0.000004 -0.000000 5.062918 7.259560 -60.393496 0.009040 -4.396063 -76.234753 0.000000 0.000003 0.000001 -0.063980 4.758029 -60.986834 -0.080428 -4.896953 -84.974356 -0.000000 0.000002 0.000000 -0.034418 -0.057025 -61.362276 -0.169956 -1.351970 -91.625403 0.000000 0.000001 0.000000 -4.255087 -2.157302 -63.603193 -0.059615 -0.064804 -85.011082 -0.000000 -0.000003 -0.000001 0.000001 -0.000001 -0.000000 0.000001 -0.000001 -0.000000 -0.000000 -0.000001 -0.000000 0.000002 -0.000001 -0.000000 0.000002 -0.000002 -0.000000 0.000002 -0.000001 -0.000000 0.000000 -0.000002 -0.000001 0.630146 13.759750 9.265011 34.557916 66.432052 -17.348047 2.853541 83.375347 -13.338973 -27.579629 0.446930 -4.373094 15.959772 -4.187776 29.032211 -14.791982 -41.235498 -16.515558 -0.000000 0.000000 -0.000002 5.358233 -4.863586 67.585050 0.006259 4.394831 68.693432 -0.000000 0.000001 0.000000 -0.076817 -4.752195 70.834888 -0.076459 4.897924 82.216346 0.000001 -0.000000 0.000000 -1.164533 -6.475307 73.357488 -0.172075 1.351262 92.834367 -0.000003 -0.000001 -0.000001 -5.344930 -12.802425 81.125251 -0.058419 0.065321 84.695964 -0.000003 -0.000004 0.000000 0.000000 -0.000000 0.000000 0.000002 0.000000 0.000000 0.000000 0.000000 -0.000000 0.000002 0.000001 0.000000 0.000003 0.000002 0.000000 0.000002 0.000001 0.000000 0.000003 0.000001 0.000000 -0.000000 0.000001 -0.000000 -0.000000 0.000001 -0.000000 -0.000000 0.000001 -0.000000 -0.000000 0.000001 -0.000000 -0.000000 0.000001 -0.000000 -0.000000 0.000001 -0.000000 -0.000000 0.000001 -0.000000 -0.000000 0.000000 -0.000000 0.000000 0.000001 -0.000000 
